<svg xmlns="http://www.w3.org/2000/svg" width="20" height="20" fill="none"><path fill="#BFBFBF" fill-rule="evenodd" d="M10 .5c.226 0 .442.091.601.253a.87.87 0 0 1 .25.61v2.12c.958.077 1.88.283 2.746.602l1.072-1.88a.855.855 0 0 1 .517-.403.842.842 0 0 1 .896.308.868.868 0 0 1 .061.957l-.991 1.74c.741.422 1.428.936 2.045 1.53l1.338-1.356a.846.846 0 0 1 1.204-.001.87.87 0 0 1 0 1.22l-1.408 1.428c.714.965 1.25 2.054 1.581 3.213a2.3 2.3 0 0 1 0 1.26c-1.215 4.283-5.206 7.399-9.913 7.399-4.704 0-8.692-3.112-9.911-7.392a2.308 2.308 0 0 1 0-1.26c.33-1.16.865-2.248 1.578-3.213L.258 6.2a.863.863 0 0 1-.248-.611.873.873 0 0 1 .252-.61.846.846 0 0 1 1.204.004l1.333 1.359a10.308 10.308 0 0 1 2.043-1.53l-.987-1.748a.87.87 0 0 1 .315-1.178.842.842 0 0 1 .647-.084c.218.06.403.206.516.405l1.063 1.881a10.38 10.38 0 0 1 2.753-.605v-2.12c0-.228.09-.448.249-.61A.845.845 0 0 1 10 .5Zm0 4.677-.03-.001a8.711 8.711 0 0 0-3.503.742l-.014.008A.846.846 0 0 1 6.287 6a8.606 8.606 0 0 0-2.865 2.176 8.328 8.328 0 0 0-1.7 3.15.552.552 0 0 0 0 .302c1.006 3.53 4.318 6.145 8.278 6.145 3.961 0 7.275-2.62 8.277-6.15a.552.552 0 0 0 0-.303 8.328 8.328 0 0 0-1.672-3.114.861.861 0 0 1-.117-.135 8.603 8.603 0 0 0-2.925-2.14A8.699 8.699 0 0 0 10 5.176Zm-4.585 6.297c0-2.566 2.053-4.645 4.584-4.645 2.53 0 4.585 2.079 4.585 4.645 0 2.566-2.054 4.644-4.585 4.644-2.532 0-4.584-2.078-4.584-4.644Z" clip-rule="evenodd"/></svg>