<svg xmlns="http://www.w3.org/2000/svg" width="20" height="20" fill="none"><path fill="#BFBFBF" d="M10 20a9.733 9.733 0 0 1-3.9-.788 10.114 10.114 0 0 1-3.175-2.137c-.9-.9-1.612-1.958-2.137-3.175A9.76 9.76 0 0 1 0 10c0-1.383.262-2.683.788-3.9a10.121 10.121 0 0 1 2.137-3.175c.899-.9 1.957-1.612 3.175-2.137A9.742 9.742 0 0 1 10 0c1.382 0 2.682.263 3.9.788a10.084 10.084 0 0 1 3.175 2.137c.899.9 1.611 1.958 2.138 3.175A9.68 9.68 0 0 1 20 10v1.45c0 .983-.337 1.821-1.012 2.513S17.484 15.001 16.5 15a3.74 3.74 0 0 1-1.65-.375 3.523 3.523 0 0 1-1.3-1.075 4.817 4.817 0 0 1-1.638 1.088A5.113 5.113 0 0 1 10 15c-1.383 0-2.562-.488-3.537-1.463C5.488 12.562 5.001 11.383 5 10c0-1.383.487-2.562 1.463-3.537C7.439 5.488 8.618 5 10 5c1.382 0 2.561.488 3.538 1.463.977.975 1.464 2.154 1.462 3.537v1.45c0 .433.142.8.425 1.1.283.3.642.45 1.075.45.433 0 .792-.15 1.075-.45.283-.3.425-.667.425-1.1V10c0-2.233-.775-4.125-2.325-5.675C14.125 2.775 12.233 2 10 2c-2.233 0-4.125.775-5.675 2.325C2.775 5.875 2 7.767 2 10c0 2.233.775 4.125 2.325 5.675C5.875 17.225 7.767 18 10 18h5v2h-5Zm0-7c.833 0 1.542-.292 2.125-.875A2.893 2.893 0 0 0 13 10c0-.833-.292-1.542-.875-2.125A2.893 2.893 0 0 0 10 7c-.833 0-1.542.292-2.125.875A2.893 2.893 0 0 0 7 10c0 .833.292 1.542.875 2.125A2.893 2.893 0 0 0 10 13Z"/></svg>